<svg width="1024" height="1024" viewBox="0 0 1024 1024" fill="none" xmlns="http://www.w3.org/2000/svg">
<g clip-path="url(#clip0_106_2)">
<path d="M455.82 310.11C457.513 310.297 459.843 310.907 462.81 311.94C469.823 314.374 476.737 316.867 483.55 319.42C484.523 319.787 485.523 319.903 486.55 319.77C495.977 318.577 505.377 318.007 514.75 318.06C549.937 318.28 582.17 327.963 611.45 347.11C633.637 361.617 651.84 380.727 666.06 404.44C679.12 426.214 687.183 449.74 690.25 475.02C690.289 475.305 690.434 475.571 690.66 475.77L715.26 497.09C715.773 497.537 716.027 497.424 716.02 496.75C715.553 463.024 707.833 431.577 692.86 402.41C683.04 383.277 670.453 366.19 655.1 351.15C634.767 331.237 611.383 316.357 584.95 306.51C578.837 304.237 572.47 302.267 565.85 300.6C529.323 291.427 492.653 291.787 455.84 301.68C443.387 305.034 431.17 309.87 419.19 316.19C395.41 328.73 374.993 345.147 357.94 365.44C340.12 386.634 327.537 411.17 320.19 439.05C314.103 462.157 311.68 485.58 312.92 509.32C312.947 509.72 313.103 509.78 313.39 509.5L336.95 486.41C337.182 486.179 337.317 485.879 337.33 485.57C338.357 461.65 343.933 439.314 354.06 418.56C377.147 371.247 413.93 339.71 464.41 323.95C464.516 323.916 464.611 323.858 464.69 323.779C464.768 323.701 464.827 323.605 464.861 323.5C464.895 323.394 464.904 323.282 464.886 323.173C464.869 323.063 464.826 322.96 464.76 322.87L455.6 310.47C455.4 310.19 455.473 310.07 455.82 310.11Z" stroke="#7E7364" stroke-width="2"/>
<path d="M493 337.79C512.267 362.95 531.963 387.797 552.09 412.33" stroke="#105770" stroke-width="2"/>
<path d="M552.09 412.33C565.21 409.697 576.763 409.087 586.75 410.5C598.403 412.147 608.923 415.877 618.31 421.69C619.15 422.21 620.037 422.314 620.97 422" stroke="#062D4C" stroke-width="2"/>
<path d="M620.97 422C625.73 425.867 630.223 430.05 634.45 434.55C644.503 445.263 654.243 456.253 663.67 467.52C663.724 467.583 663.782 467.635 663.843 467.673C663.903 467.711 663.963 467.734 664.02 467.74C664.227 467.76 664.257 467.63 664.11 467.35C657.67 455.083 650.563 443.217 642.79 431.75" stroke="#105770" stroke-width="2"/>
<path d="M642.79 431.75C634.857 419.304 625.997 407.57 616.21 396.55C611.683 391.457 608.48 387.98 606.6 386.12C602.867 382.427 599.147 379.49 595.44 377.31C584.973 371.157 572.307 364.707 557.44 357.96C547.107 353.26 541.867 350.877 541.72 350.81C523.34 342.384 504.623 334.3 485.57 326.56C484.13 325.974 483.89 326.287 484.85 327.5L493 337.79" stroke="#487082" stroke-width="2"/>
<path d="M642.79 431.75C642.643 432.184 642.38 432.434 642 432.5C641.87 432.524 641.724 432.502 641.58 432.435C641.436 432.368 641.297 432.259 641.18 432.12C632.64 421.767 623.527 411.947 613.84 402.66C603.967 393.2 594.333 385.917 584.94 380.81C560.827 367.697 532.71 354.55 500.59 341.37C499.123 340.77 497.74 340.027 496.44 339.14C496.373 339.094 496.01 338.74 495.35 338.08C494.723 337.46 493.94 337.364 493 337.79" stroke="#57B5CF" stroke-width="2"/>
<path d="M620.97 422C616.15 417.087 611.43 413.234 606.81 410.44C588.29 399.227 566.85 387.127 542.49 374.14C542.43 374.114 540.02 372.737 535.26 370.01C531.987 368.137 528.577 366.547 525.03 365.24C524.717 365.12 524.643 365.207 524.81 365.5C534.517 382.194 542.58 395.36 549 405C550.713 407.567 551.743 410.01 552.09 412.33" stroke="#167298" stroke-width="2"/>
<path d="M534.5 413.79C506.32 413.803 478.15 414.26 449.99 415.16C442.763 415.393 436.103 415.58 430.01 415.72C414.503 416.067 398.997 416.493 383.49 417C382.83 417.02 382.817 417.123 383.45 417.31C405.57 423.677 427.807 429.883 450.16 435.93C451.413 436.27 452.83 436.413 454.41 436.36C455.863 436.307 457.31 436.34 458.75 436.46" stroke="#467084" stroke-width="2"/>
<path d="M458.75 436.46C440.197 439.773 421.677 443.267 403.19 446.94C396.843 448.2 392.457 449.193 390.03 449.92C389.731 450.011 389.461 450.204 389.26 450.47C355.087 497.05 320.583 543.38 285.75 589.46" stroke="#487484" stroke-width="2"/>
<path d="M285.75 589.46L266.99 613.46C266.783 613.727 266.84 613.807 267.16 613.7C307.293 599.9 347.583 586.614 388.03 573.84C404.27 568.707 421.65 563.547 440.17 558.36C440.88 558.165 441.479 557.82 441.89 557.37L453.28 544.84" stroke="#0D5871" stroke-width="2"/>
<path d="M453.28 544.84L468.04 527.5" stroke="#062D4C" stroke-width="2"/>
<path d="M468.04 527.5C473.733 520.9 479.347 513.83 484.88 506.29C485.021 506.097 485.092 505.859 485.083 505.614C485.074 505.369 484.985 505.129 484.83 504.93L464.61 479.74" stroke="#08233E" stroke-width="2"/>
<path d="M464.61 479.74L451.98 465.45C451.86 465.316 451.772 465.157 451.72 464.984C451.669 464.811 451.655 464.628 451.681 464.446C451.706 464.265 451.77 464.089 451.868 463.931C451.967 463.773 452.097 463.637 452.25 463.53C470.043 451.084 488.337 439.654 507.13 429.24" stroke="#062D4C" stroke-width="2"/>
<path d="M507.13 429.24C517.523 423.787 528.18 418.807 539.1 414.3C539.687 414.053 539.673 413.853 539.06 413.7C537.6 413.333 536.08 413.363 534.5 413.79" stroke="#14566E" stroke-width="2"/>
<path d="M507.13 429.24C491.703 427.907 476.473 425.953 461.44 423.38C460.167 423.16 458.7 423.1 457.04 423.2C455.647 423.28 454.16 423.287 452.58 423.22C452.474 423.216 452.37 423.189 452.275 423.142C452.18 423.095 452.096 423.028 452.029 422.947C451.962 422.866 451.913 422.772 451.886 422.67C451.858 422.569 451.853 422.463 451.87 422.36C452.003 421.493 451.63 420.803 450.75 420.29" stroke="#1A7197" stroke-width="2"/>
<path d="M450.75 420.29L502.75 417.03C503.054 417.011 503.354 416.876 503.6 416.65C504.853 415.457 506.403 414.917 508.25 415.03C515.183 415.457 522.12 415.593 529.06 415.44C530.533 415.407 531.65 415.313 532.41 415.16C532.543 415.133 532.94 415.09 533.6 415.03C534.26 414.977 534.56 414.563 534.5 413.79" stroke="#5AB4CF" stroke-width="2"/>
<path d="M450.75 420.29L429.81 421.54C429.755 421.542 429.701 421.559 429.653 421.587C429.606 421.616 429.567 421.656 429.539 421.703C429.511 421.751 429.495 421.805 429.494 421.861C429.492 421.916 429.505 421.971 429.53 422.02C430.497 423.86 431.923 425.083 433.81 425.69C441.563 428.177 450.18 430.6 459.66 432.96C462.907 433.767 465.883 434.657 468.59 435.63C471.55 436.697 474.467 437.77 477.34 438.85C478.387 439.25 478.36 439.55 477.26 439.75C465.047 441.99 452.96 444.753 441 448.04" stroke="#4C8BAC" stroke-width="2"/>
<path d="M441 448.04L440 447.96" stroke="#53B6D1" stroke-width="2"/>
<path d="M440 447.96L441.52 447.17C441.658 447.099 441.776 447.001 441.863 446.884C441.951 446.767 442.004 446.635 442.02 446.5C442.16 445.293 442.967 444.357 444.44 443.69C446.96 442.543 449.13 441.653 450.95 441.02C452.057 440.64 454.337 440.197 457.79 439.69C460.177 439.343 462.637 438.797 465.17 438.05C466.91 437.537 466.937 436.95 465.25 436.29C463.35 435.543 461.183 435.6 458.75 436.46" stroke="#8ED2E5" stroke-width="2"/>
<path d="M464.61 479.74L467.53 484.62C468.403 486.067 468.167 487.13 466.82 487.81C458.7 491.91 450.603 496.05 442.53 500.23C442.49 500.257 437.147 503.147 426.5 508.9C417.827 513.594 408.917 517.81 399.77 521.55C398.177 522.204 398.087 523.034 399.5 524.04" stroke="#0E3E67" stroke-width="2"/>
<path d="M399.5 524.04L373.49 526.47C373.137 526.503 373.117 526.427 373.43 526.24L432.87 490.38C432.934 490.342 432.988 490.289 433.027 490.226C433.065 490.162 433.088 490.09 433.092 490.016C433.096 489.941 433.081 489.867 433.049 489.8C433.018 489.733 432.97 489.674 432.91 489.63L412.91 474.8C412.869 474.769 412.836 474.728 412.816 474.681C412.795 474.634 412.787 474.582 412.792 474.531C412.797 474.48 412.815 474.431 412.844 474.388C412.874 474.346 412.914 474.312 412.96 474.29C421.207 470.49 429.527 466.857 437.92 463.39C444.413 460.71 451.053 457.6 457.84 454.06C458.447 453.747 458.427 453.48 457.78 453.26C452.107 451.347 446.587 449.857 441.22 448.79C441.027 448.757 440.897 448.687 440.83 448.58C440.717 448.407 440.773 448.227 441 448.04" stroke="#137399" stroke-width="2"/>
<path d="M399.5 524.04L440.26 519.75C441.147 519.657 441.193 519.81 440.4 520.21C425.2 527.837 410.15 535.78 395.25 544.04" stroke="#15698C" stroke-width="2"/>
<path d="M395.25 544.04L317.92 585.95C316.64 586.643 316.693 586.763 318.08 586.31C335.827 580.543 353.747 574.657 371.84 568.65C398.687 559.743 425.833 551.807 453.28 544.84" stroke="#137399" stroke-width="2"/>
<path d="M440 447.96C425.667 451.467 411.443 455.37 397.33 459.67C397.27 459.69 396.543 459.88 395.15 460.24C393.47 460.673 392.253 461.343 391.5 462.25C374.8 482.303 358.093 502.35 341.38 522.39C323.127 544.283 305.167 566.417 287.5 588.79C287.3 589.042 287.013 589.216 286.69 589.28L285.75 589.46" stroke="#55BAD2" stroke-width="2"/>
<path d="M468.04 527.5C468.113 527.087 468.05 526.773 467.85 526.56C467.771 526.472 467.643 526.417 467.484 526.403C467.325 526.389 467.142 526.416 466.96 526.48C444.227 534.367 421.09 540.817 397.55 545.83C396.857 545.977 396.333 545.937 395.98 545.71C395.46 545.383 395.217 544.827 395.25 544.04" stroke="#0E3E67" stroke-width="2"/>
<path d="M323.75 691.46L333.54 686.5" stroke="#602316" stroke-width="2"/>
<path d="M333.54 686.5C349.56 678.627 365.493 670.587 381.34 662.38C390.547 657.614 399.91 653.074 409.43 648.76C410.53 648.26 410.733 648.5 410.04 649.48L404.71 657" stroke="#5C1E2E" stroke-width="2"/>
<path d="M404.71 657L396.54 667.25" stroke="#441325" stroke-width="2"/>
<path d="M396.54 667.25L384.85 680.79C383.85 681.95 383.983 682.093 385.25 681.22C404.603 667.88 424.257 654.817 444.21 642.03C444.337 641.943 449.643 638.527 460.13 631.78C477.203 620.793 494.547 610.247 512.16 600.14C524.893 592.84 537.853 585.967 551.04 579.52C575.273 567.68 600.393 558.193 626.4 551.06C642.647 546.607 659.01 543.29 675.49 541.11C676.177 541.017 676.217 540.8 675.61 540.46C669.997 537.347 664.133 535.033 658.02 533.52" stroke="#611E2B" stroke-width="2"/>
<path d="M658.02 533.52C645.727 527.48 632.877 525.37 619.47 527.19C615.003 527.797 612.68 528.117 612.5 528.15C610.32 528.557 608.07 529.257 605.75 530.25C605.237 530.47 604.99 530.414 605.01 530.08C605.017 529.934 605.093 529.774 605.24 529.6C609.52 524.447 614.82 520.53 621.14 517.85C624.18 516.564 624.053 516.024 620.76 516.23C619.567 516.304 617.48 516.324 614.5 516.29" stroke="#441325" stroke-width="2"/>
<path d="M614.5 516.29C607.353 515.917 600.537 514.224 594.05 511.21C587.677 508.244 581.657 504.697 575.99 500.57C571.583 497.357 569.347 495.727 569.28 495.68C557.573 487.454 546.04 478.994 534.68 470.3" stroke="#5C1E2E" stroke-width="2"/>
<path d="M534.68 470.3C531.827 469.293 532.413 468.52 536.44 467.98" stroke="#602316" stroke-width="2"/>
<path d="M536.44 467.98C548.293 466.893 560.107 465.64 571.88 464.22C576.78 463.633 580.7 463.237 583.64 463.03C589.073 462.65 593.027 462.557 595.5 462.75C606.72 463.637 616.753 467.517 625.6 474.39C632.02 479.37 637.217 484.593 641.19 490.06C643.363 493.06 645.47 495.297 647.51 496.77" stroke="#743A32" stroke-width="2"/>
<path d="M647.51 496.77C654.25 494.31 661.003 491.903 667.77 489.55C668.983 489.123 670.547 488.83 672.46 488.67C673.087 488.617 673.18 488.373 672.74 487.94L670.79 486" stroke="#602316" stroke-width="2"/>
<path d="M670.79 486C659.963 474.12 648.963 462.407 637.79 450.86C630.35 443.167 625.62 438.47 623.6 436.77C611.56 426.603 597.277 421.037 580.75 420.07C564.59 419.13 548.977 421.563 533.91 427.37C526.703 430.15 520.213 433.09 514.44 436.19C497.52 445.257 481.007 455.307 464.9 466.34C464.78 466.422 464.679 466.529 464.603 466.654C464.527 466.778 464.479 466.918 464.461 467.062C464.443 467.207 464.456 467.354 464.499 467.493C464.542 467.632 464.614 467.761 464.71 467.87C475.743 480.457 486.467 493.47 496.88 506.91C496.969 507.023 497.016 507.163 497.014 507.307C497.012 507.45 496.962 507.589 496.87 507.7C482.21 525.7 466.15 543.697 448.69 561.69C419.663 591.583 394.083 617.503 371.95 639.45C351.983 659.257 331.603 678.627 310.81 697.56C310.357 697.973 310.45 698.03 311.09 697.73C315.35 695.73 319.57 693.64 323.75 691.46" stroke="#763E32" stroke-width="2"/>
<path d="M670.79 486C670.79 486.487 670.61 486.793 670.25 486.92C670.129 486.968 669.981 486.973 669.823 486.934C669.664 486.896 669.501 486.815 669.35 486.7C667.123 484.987 664.987 483.173 662.94 481.26C659.287 477.84 657.233 475.93 656.78 475.53C649.387 469.03 642.01 462.507 634.65 455.96C625.09 447.46 620.097 443.043 619.67 442.71C603.957 430.517 585.567 425.78 564.5 428.5C549.8 430.4 536.217 434.483 523.75 440.75C507.643 448.843 491.847 457.947 476.36 468.06C475.88 468.373 475.907 468.633 476.44 468.84L503.6 479.27C503.74 479.323 503.861 479.413 503.95 479.53C504.038 479.647 504.091 479.786 504.1 479.93C504.24 482.577 503.953 485.193 503.24 487.78C503.131 488.176 503.168 488.597 503.345 488.965C503.522 489.334 503.826 489.623 504.2 489.78L515.95 494.74C516.392 494.928 516.745 495.277 516.935 495.715C517.125 496.153 517.137 496.646 516.97 497.09L515.42 501.29C515.36 501.449 515.333 501.613 515.34 501.771C515.347 501.928 515.388 502.075 515.46 502.2C515.8 502.8 516.337 503.213 517.07 503.44C517.236 503.491 517.387 503.583 517.508 503.709C517.628 503.834 517.715 503.989 517.759 504.157C517.803 504.326 517.803 504.502 517.76 504.671C517.716 504.84 517.63 504.994 517.51 505.12C511.81 511.033 505.963 516.853 499.97 522.58C490.477 531.66 485.657 536.27 485.51 536.41C459.763 561.41 433.833 586.217 407.72 610.83C404.06 614.277 399.26 618.9 393.32 624.7C386.067 631.767 380.607 636.847 376.94 639.94C370.593 645.287 364.383 650.783 358.31 656.43C354.503 659.977 349.543 664.42 343.43 669.76C336.557 675.773 329.963 682.09 323.65 688.71C323.548 688.819 323.473 688.951 323.431 689.097C323.39 689.243 323.382 689.398 323.41 689.55L323.75 691.46" stroke="#D64F25" stroke-width="2"/>
<path d="M647.51 496.77C645.777 490.29 642.78 484.53 638.52 479.49C635.14 475.49 632.697 472.763 631.19 471.31C623.89 464.27 615.45 459.723 605.87 457.67C601.223 456.677 595.913 456.48 589.94 457.08C584.987 457.573 579.693 458.4 574.06 459.56C557.94 462.893 545.4 465.7 536.44 467.98" stroke="#D34B25" stroke-width="2"/>
<path d="M534.68 470.3C534.9 471.934 535.483 473.127 536.43 473.88C537.103 474.407 537.457 474.687 537.49 474.72C541.59 478.674 545.64 482.63 549.64 486.59" stroke="#BB2F21" stroke-width="2"/>
<path d="M549.64 486.59C556.16 493.977 562.993 501 570.14 507.66C570.186 507.703 570.222 507.755 570.246 507.813C570.27 507.87 570.281 507.932 570.279 507.995C570.277 508.057 570.262 508.119 570.235 508.175C570.207 508.231 570.168 508.28 570.12 508.32L548.8 526.08C547.993 526.747 548.117 527.124 549.17 527.21L583.86 530.05C585.02 530.15 585.09 530.487 584.07 531.06C556.977 546.374 530.173 562.18 503.66 578.48C464.56 602.514 438.153 618.917 424.44 627.69C407.267 638.67 394.12 646.69 385 651.75C375.513 657.017 367.4 662.417 360.66 667.95" stroke="#A32418" stroke-width="2"/>
<path d="M360.66 667.95C358.333 670.99 355.33 673.27 351.65 674.79C349.703 675.597 347.96 676.734 346.42 678.2C345.66 678.934 344.757 679.37 343.71 679.51C341.857 679.757 340.363 680.6 339.23 682.04C339.043 682.28 338.787 682.467 338.46 682.6L333.38 684.72C333.33 684.742 333.286 684.777 333.252 684.821C333.217 684.865 333.192 684.918 333.179 684.977C333.166 685.035 333.164 685.098 333.175 685.161C333.185 685.223 333.208 685.284 333.24 685.34C333.42 685.667 333.52 686.054 333.54 686.5" stroke="#BB2F21" stroke-width="2"/>
<path d="M614.5 516.29C615.527 517.65 615.257 518.45 613.69 518.69C606.77 519.744 600.1 519.09 593.68 516.73C590 515.377 584.523 512.067 577.25 506.8C568.017 500.107 558.813 493.37 549.64 486.59" stroke="#9F1F2F" stroke-width="2"/>
<path d="M658.02 533.52C654.847 533.973 651.677 534.417 648.51 534.85C645.21 535.303 642.067 535.893 639.08 536.62C631.2 538.527 623.343 540.533 615.51 542.64C614.063 543.027 611.457 543.877 607.69 545.19C580.11 554.783 554.567 566.49 531.06 580.31C497.867 599.83 461.097 623.837 420.75 652.33C420.297 652.657 419.313 653.457 417.8 654.73C416.813 655.557 415.76 656.277 414.64 656.89C412.213 658.217 410.603 659.183 409.81 659.79C404.923 663.53 401.967 665.747 400.94 666.44C399.887 667.147 398.42 667.417 396.54 667.25" stroke="#A41F2D" stroke-width="2"/>
<path d="M404.71 657C404.977 657.54 405.387 657.797 405.94 657.77C406.078 657.764 406.225 657.72 406.369 657.641C406.514 657.562 406.654 657.449 406.78 657.31C411.807 651.85 418.443 645.06 426.69 636.94C426.877 636.754 426.913 636.59 426.8 636.45C426.742 636.381 426.649 636.338 426.535 636.327C426.422 636.317 426.293 636.339 426.17 636.39C416.83 640.417 409.71 643.724 404.81 646.31C390.317 653.964 375.6 661.177 360.66 667.95" stroke="#9F1F2F" stroke-width="2"/>
<path d="M615.71 483.75C614.237 485.03 613.82 486.417 614.46 487.91C615 489.177 615.95 489.897 617.31 490.07C618.703 490.243 620.127 489.823 621.58 488.81" stroke="#5B6F7B" stroke-width="2"/>
<path d="M621.58 488.81C620.68 490.79 619.8 492.75 618.94 494.69C617.653 497.564 615.527 499.554 612.56 500.66C606.02 503.094 599.307 503.677 592.42 502.41C591.087 502.17 590.943 502.26 591.99 502.68C601.697 506.634 611.783 508.817 622.25 509.23C622.577 509.244 622.899 509.164 623.18 509C628.087 506.174 632.42 502.63 636.18 498.37C636.271 498.264 636.324 498.13 636.331 497.989C636.339 497.848 636.299 497.708 636.22 497.59C635.22 496.184 633.333 493.8 630.56 490.44C623.733 482.154 615.593 476.15 606.14 472.43C605.547 472.197 605.223 472.154 605.17 472.3C605.145 472.378 605.188 472.479 605.29 472.582C605.392 472.684 605.546 472.78 605.72 472.85C610.473 474.817 614.297 477.304 617.19 480.31C617.977 481.137 618.71 481.727 619.39 482.08C620.523 482.687 621.097 482.994 621.11 483C622.87 484.267 623.897 485.204 624.19 485.81C624.657 486.797 624.453 486.987 623.58 486.38C623.427 486.274 623.273 486.13 623.12 485.95C621.18 483.65 618.71 482.917 615.71 483.75" stroke="#487484" stroke-width="2"/>
<path d="M621.58 488.81C621.047 488.043 620.373 487.503 619.56 487.19C618.02 486.597 616.737 485.45 615.71 483.75" stroke="#A3D1DC" stroke-width="2"/>
<path d="M595.94 488.81C598.6 490.51 600.537 489.997 601.75 487.27C601.775 487.215 601.787 487.155 601.785 487.094C601.783 487.033 601.768 486.972 601.739 486.916C601.711 486.859 601.671 486.808 601.621 486.766C601.571 486.723 601.513 486.691 601.45 486.67C597.823 485.51 595.853 483.03 595.54 479.23C595.473 478.377 595.273 477.78 594.94 477.44C594.333 476.814 593.593 476.764 592.72 477.29C592.59 477.366 592.476 477.473 592.383 477.603C592.29 477.734 592.221 477.886 592.18 478.05C590.96 482.844 592.213 486.43 595.94 488.81Z" stroke="#1E1122" stroke-width="2"/>
<path d="M601.39 481.85C601.283 482.263 601.007 482.667 600.56 483.06C599.247 484.227 599.56 484.79 601.5 484.75C602.993 484.717 604.077 484.063 604.75 482.79" stroke="#4D5866" stroke-width="2"/>
<path d="M604.75 482.79C605.583 482.35 606.22 481.614 606.66 480.58C606.688 480.516 606.7 480.446 606.693 480.376C606.687 480.306 606.662 480.239 606.623 480.18C606.583 480.122 606.529 480.074 606.466 480.04C606.402 480.007 606.332 479.99 606.26 479.99C604.187 480.01 602.563 480.63 601.39 481.85" stroke="#4D5866" stroke-width="2"/>
<path d="M604.75 482.79L601.39 481.85" stroke="#999EA9" stroke-width="2"/>
<path d="M612.46 484.29C611.833 484.403 611.66 484.577 611.94 484.81C612.019 484.875 612.123 484.912 612.237 484.915C612.351 484.919 612.47 484.889 612.58 484.83C613.693 484.25 613.653 484.07 612.46 484.29Z" stroke="#08233E" stroke-width="2"/>
<path d="M610.609 490.319C610.75 490.089 610.827 489.823 610.834 489.535C610.841 489.248 610.779 488.943 610.65 488.64C610.522 488.337 610.33 488.042 610.086 487.77C609.842 487.498 609.55 487.255 609.227 487.056C608.575 486.653 607.836 486.451 607.173 486.493C606.51 486.535 605.977 486.819 605.691 487.281C605.55 487.51 605.473 487.776 605.466 488.064C605.459 488.352 605.521 488.656 605.65 488.959C605.778 489.262 605.97 489.558 606.214 489.83C606.458 490.102 606.75 490.345 607.073 490.544C607.725 490.947 608.464 491.149 609.127 491.107C609.79 491.065 610.323 490.781 610.609 490.319Z" stroke="#4D5866" stroke-width="2"/>
<path d="M660.25 504.79C662.977 506.297 666.56 507.867 671 509.5C676 511.34 685.063 515.193 698.19 521.06C704.217 523.753 711.57 526.22 720.25 528.46" stroke="#5D352D" stroke-width="2"/>
<path d="M720.25 528.46L732.25 531.71" stroke="#7B7063" stroke-width="2"/>
<path d="M732.25 531.71C734.157 532.39 736.07 533.043 737.99 533.67C738.177 533.73 738.347 533.8 738.5 533.88C739.84 534.613 739.633 534.82 737.88 534.5C737.687 534.46 737.473 534.407 737.24 534.34C726.34 531.067 715.277 528.57 704.05 526.85C693.417 525.217 688.06 524.393 687.98 524.38C672.093 521.673 656.203 519.01 640.31 516.39C639.963 516.337 639.947 516.377 640.26 516.51L686.29 535.81C686.537 535.917 686.853 535.953 687.24 535.92C687.753 535.873 688.507 535.9 689.5 536C713.7 538.433 731.78 540.46 743.74 542.08C754.38 543.52 765.053 544.647 775.76 545.46C776.08 545.487 776.093 545.43 775.8 545.29L739.5 527.78" stroke="#7E7468" stroke-width="2"/>
<path d="M739.5 527.78C719.733 517.34 699.81 507.244 679.73 497.49C679.049 497.157 678.262 497.096 677.53 497.32C672.057 498.967 666.57 500.79 661.07 502.79C660.803 502.89 660.42 503.004 659.92 503.13C658.227 503.564 658.337 504.117 660.25 504.79" stroke="#7B7063" stroke-width="2"/>
<path d="M739.5 527.78C730.54 526.167 722.043 523.217 714.01 518.93C713.79 518.81 713.473 518.724 713.06 518.67C712.627 518.617 712.313 518.444 712.12 518.15C712.013 517.987 711.899 517.846 711.785 517.737C711.671 517.629 711.56 517.555 711.46 517.52C706.72 515.807 702.003 514.03 697.31 512.19C696.01 511.677 695.03 511.147 694.37 510.6C694.09 510.36 693.8 510.214 693.5 510.16C688.553 509.234 683.893 507.504 679.52 504.97C678.06 504.13 676.567 503.94 675.04 504.4C674.899 504.442 674.777 504.531 674.695 504.651C674.612 504.772 674.575 504.916 674.59 505.06C674.697 506.094 675.103 506.804 675.81 507.19C678.063 508.41 681.263 509.857 685.41 511.53C688.87 512.924 692.09 514.317 695.07 515.71C702.297 519.084 708.023 521.43 712.25 522.75C716.283 524.01 719.563 525.207 722.09 526.34C723.557 526.994 724.87 527.494 726.03 527.84C727.39 528.247 728.74 528.677 730.08 529.13C731.34 529.55 732.063 530.41 732.25 531.71" stroke="#F9D2A7" stroke-width="2"/>
<path d="M720.25 528.46L719.98 527.31C719.944 527.154 719.876 527.014 719.784 526.904C719.692 526.794 719.58 526.72 719.46 526.69C714.153 525.277 709.003 523.43 704.01 521.15C703.837 521.064 703.58 520.867 703.24 520.56C702.847 520.2 702.343 520.06 701.73 520.14C701.384 520.192 701.058 520.161 700.79 520.05L662.46 504.18C662.343 504.133 662.203 504.115 662.048 504.127C661.893 504.139 661.727 504.181 661.56 504.25L660.25 504.79" stroke="#D8926D" stroke-width="2"/>
<path d="M488 676.21L445.95 709C445.603 709.273 445.64 709.393 446.06 709.36C446.267 709.347 446.473 709.287 446.68 709.18C455.647 704.433 464.587 699.637 473.5 694.79" stroke="#5E2430" stroke-width="2"/>
<path d="M473.5 694.79C502.953 679.29 532.11 663.247 560.97 646.66C562.337 645.88 563.767 645.244 565.26 644.75C566.1 644.47 566.397 644.754 566.15 645.6C564.117 652.434 561.39 659.117 557.97 665.65C555.71 669.964 553.617 674.357 551.69 678.83C551.183 679.997 551.363 680.054 552.23 679C553.103 677.927 553.943 676.83 554.75 675.71" stroke="#5D211A" stroke-width="2"/>
<path d="M554.75 675.71L556.95 675.07C557.273 674.98 557.549 674.785 557.73 674.52C564.043 665.66 570.097 656.627 575.89 647.42C576.623 646.253 577.593 644.857 578.8 643.23C579.82 641.857 580.79 640.45 581.71 639.01C582.377 637.963 583.41 636.597 584.81 634.91C585.917 633.57 586.877 632.127 587.69 630.58C588.077 629.847 588.647 629.12 589.4 628.4C590.093 627.74 590.683 627.003 591.17 626.19C592.57 623.85 593.28 622.667 593.3 622.64C598.247 615.94 603.06 609.143 607.74 602.25C609.28 599.983 611.6 596.77 614.7 592.61C617.073 589.423 619.327 586.157 621.46 582.81C622.133 581.75 623.023 580.72 624.13 579.72C625.63 578.367 626.503 577.293 626.75 576.5C627.25 574.893 628.563 573.04 630.69 570.94C631.243 570.387 632.187 568.887 633.52 566.44C633.587 566.314 633.606 566.169 633.575 566.033C633.543 565.896 633.463 565.778 633.35 565.7L632.71 565.25" stroke="#130C1A" stroke-width="2"/>
<path d="M632.71 565.25C633.083 564.863 633.28 564.447 633.3 564C633.313 563.633 633.16 563.563 632.84 563.79C629.807 565.91 626.827 568.103 623.9 570.37C620.88 572.71 617.93 574.93 615.05 577.03C609.077 581.39 603.303 586 597.73 590.86C596.783 591.687 595.493 592.603 593.86 593.61C592.493 594.45 591.207 595.393 590 596.44C587.013 599.02 585.197 600.547 584.55 601.02C576.983 606.553 565.57 615.317 550.31 627.31C529.557 643.63 508.787 659.93 488 676.21" stroke="#744238" stroke-width="2"/>
<path d="M632.71 565.25C615.19 588.75 598.063 612.537 581.33 636.61C579.25 639.61 577.21 642.633 575.21 645.68" stroke="#873B2F" stroke-width="2"/>
<path d="M575.21 645.68C573.91 645.553 573.67 645.07 574.49 644.23C576.203 642.463 577.4 640.45 578.08 638.19C578.593 636.497 579.167 635.194 579.8 634.28C586.18 625.107 590.017 619.367 591.31 617.06C595.503 609.62 600.007 602.367 604.82 595.3C605.867 593.767 605.62 593.52 604.08 594.56C602.98 595.3 601.693 595.99 600.22 596.63C598.68 597.303 597.41 597.994 596.41 598.7C591.55 602.16 586.713 605.653 581.9 609.18C551.133 631.707 520.43 654.313 489.79 677" stroke="#D1512F" stroke-width="2"/>
<path d="M489.79 677C489.17 676.887 488.573 676.623 488 676.21" stroke="#D25445" stroke-width="2"/>
<path d="M473.5 694.79C471.9 694.963 471.403 694.493 472.01 693.38C472.157 693.12 472.27 692.847 472.35 692.56C472.45 692.187 472.583 691.917 472.75 691.75C478.037 686.383 483.717 681.467 489.79 677" stroke="#BB3327" stroke-width="2"/>
<path d="M554.75 675.71L575.21 645.68" stroke="#701B11" stroke-width="2"/>
<path d="M540.3 654.43C543.313 652.723 546.323 651.017 549.33 649.31C550.363 648.723 552.187 647.527 554.8 645.72C556.607 644.473 558.503 643.383 560.49 642.45C563.51 641.03 565.733 639.84 567.16 638.88C569.007 637.633 570.847 636.373 572.68 635.1C574.893 633.573 576.51 632.06 577.53 630.56C578.877 628.587 579.93 626.37 580.69 623.91C581.043 622.763 580.74 622.55 579.78 623.27C573.22 628.23 566.393 633.01 559.3 637.61C544.427 647.263 529.463 656.777 514.41 666.15C514.063 666.363 513.817 666.617 513.67 666.91C513.19 667.857 513.463 668.213 514.49 667.98C514.803 667.907 515.163 667.753 515.57 667.52C521.063 664.427 526.727 661.69 532.56 659.31C533.653 658.863 534.97 658.08 536.51 656.96C538.01 655.86 539.273 655.017 540.3 654.43Z" stroke="#9F2216" stroke-width="2"/>
<path d="M0 0H1024V1024H0V0ZM455.82 310.11C457.513 310.297 459.843 310.907 462.81 311.94C469.823 314.373 476.737 316.867 483.55 319.42C484.523 319.787 485.523 319.903 486.55 319.77C495.977 318.577 505.377 318.007 514.75 318.06C549.937 318.28 582.17 327.963 611.45 347.11C633.637 361.617 651.84 380.727 666.06 404.44C679.12 426.213 687.183 449.74 690.25 475.02C690.289 475.304 690.434 475.571 690.66 475.77L715.26 497.09C715.773 497.537 716.027 497.423 716.02 496.75C715.553 463.023 707.833 431.577 692.86 402.41C683.04 383.277 670.453 366.19 655.1 351.15C634.767 331.237 611.383 316.357 584.95 306.51C578.837 304.237 572.47 302.267 565.85 300.6C529.323 291.427 492.653 291.787 455.84 301.68C443.387 305.033 431.17 309.87 419.19 316.19C395.41 328.73 374.993 345.147 357.94 365.44C340.12 386.633 327.537 411.17 320.19 439.05C314.103 462.157 311.68 485.58 312.92 509.32C312.947 509.72 313.103 509.78 313.39 509.5L336.95 486.41C337.182 486.178 337.317 485.878 337.33 485.57C338.357 461.65 343.933 439.313 354.06 418.56C377.147 371.247 413.93 339.71 464.41 323.95C464.516 323.916 464.611 323.857 464.69 323.779C464.768 323.701 464.827 323.605 464.861 323.5C464.895 323.394 464.904 323.282 464.886 323.173C464.869 323.063 464.826 322.959 464.76 322.87L455.6 310.47C455.4 310.19 455.473 310.07 455.82 310.11ZM493 337.79C512.267 362.95 531.963 387.797 552.09 412.33C565.21 409.697 576.763 409.087 586.75 410.5C598.403 412.147 608.923 415.877 618.31 421.69C619.15 422.21 620.037 422.313 620.97 422C625.73 425.867 630.223 430.05 634.45 434.55C644.503 445.263 654.243 456.253 663.67 467.52C663.724 467.583 663.782 467.635 663.843 467.673C663.903 467.711 663.963 467.734 664.02 467.74C664.227 467.76 664.257 467.63 664.11 467.35C657.67 455.083 650.563 443.217 642.79 431.75C634.857 419.303 625.997 407.57 616.21 396.55C611.683 391.457 608.48 387.98 606.6 386.12C602.867 382.427 599.147 379.49 595.44 377.31C584.973 371.157 572.307 364.707 557.44 357.96C547.107 353.26 541.867 350.877 541.72 350.81C523.34 342.383 504.623 334.3 485.57 326.56C484.13 325.973 483.89 326.287 484.85 327.5L493 337.79ZM534.5 413.79C506.32 413.803 478.15 414.26 449.99 415.16C442.763 415.393 436.103 415.58 430.01 415.72C414.503 416.067 398.997 416.493 383.49 417C382.83 417.02 382.817 417.123 383.45 417.31C405.57 423.677 427.807 429.883 450.16 435.93C451.413 436.27 452.83 436.413 454.41 436.36C455.863 436.307 457.31 436.34 458.75 436.46C440.197 439.773 421.677 443.267 403.19 446.94C396.843 448.2 392.457 449.193 390.03 449.92C389.731 450.011 389.461 450.204 389.26 450.47C355.087 497.05 320.583 543.38 285.75 589.46L266.99 613.46C266.783 613.727 266.84 613.807 267.16 613.7C307.293 599.9 347.583 586.613 388.03 573.84C404.27 568.707 421.65 563.547 440.17 558.36C440.88 558.164 441.479 557.82 441.89 557.37L453.28 544.84L468.04 527.5C473.733 520.9 479.347 513.83 484.88 506.29C485.021 506.096 485.092 505.859 485.083 505.614C485.074 505.368 484.985 505.128 484.83 504.93L464.61 479.74L451.98 465.45C451.86 465.316 451.772 465.157 451.72 464.984C451.669 464.811 451.655 464.627 451.681 464.446C451.706 464.264 451.77 464.089 451.868 463.931C451.967 463.773 452.097 463.637 452.25 463.53C470.043 451.083 488.337 439.653 507.13 429.24C517.523 423.787 528.18 418.807 539.1 414.3C539.687 414.053 539.673 413.853 539.06 413.7C537.6 413.333 536.08 413.363 534.5 413.79ZM323.75 691.46L333.54 686.5C349.56 678.627 365.493 670.587 381.34 662.38C390.547 657.613 399.91 653.073 409.43 648.76C410.53 648.26 410.733 648.5 410.04 649.48L404.71 657L396.54 667.25L384.85 680.79C383.85 681.95 383.983 682.093 385.25 681.22C404.603 667.88 424.257 654.817 444.21 642.03C444.337 641.943 449.643 638.527 460.13 631.78C477.203 620.793 494.547 610.247 512.16 600.14C524.893 592.84 537.853 585.967 551.04 579.52C575.273 567.68 600.393 558.193 626.4 551.06C642.647 546.607 659.01 543.29 675.49 541.11C676.177 541.017 676.217 540.8 675.61 540.46C669.997 537.347 664.133 535.033 658.02 533.52C645.727 527.48 632.877 525.37 619.47 527.19C615.003 527.797 612.68 528.117 612.5 528.15C610.32 528.557 608.07 529.257 605.75 530.25C605.237 530.47 604.99 530.413 605.01 530.08C605.017 529.933 605.093 529.773 605.24 529.6C609.52 524.447 614.82 520.53 621.14 517.85C624.18 516.563 624.053 516.023 620.76 516.23C619.567 516.303 617.48 516.323 614.5 516.29C607.353 515.917 600.537 514.223 594.05 511.21C587.677 508.243 581.657 504.697 575.99 500.57C571.583 497.357 569.347 495.727 569.28 495.68C557.573 487.453 546.04 478.993 534.68 470.3C531.827 469.293 532.413 468.52 536.44 467.98C548.293 466.893 560.107 465.64 571.88 464.22C576.78 463.633 580.7 463.237 583.64 463.03C589.073 462.65 593.027 462.557 595.5 462.75C606.72 463.637 616.753 467.517 625.6 474.39C632.02 479.37 637.217 484.593 641.19 490.06C643.363 493.06 645.47 495.297 647.51 496.77C654.25 494.31 661.003 491.903 667.77 489.55C668.983 489.123 670.547 488.83 672.46 488.67C673.087 488.617 673.18 488.373 672.74 487.94L670.79 486C659.963 474.12 648.963 462.407 637.79 450.86C630.35 443.167 625.62 438.47 623.6 436.77C611.56 426.603 597.277 421.037 580.75 420.07C564.59 419.13 548.977 421.563 533.91 427.37C526.703 430.15 520.213 433.09 514.44 436.19C497.52 445.257 481.007 455.307 464.9 466.34C464.78 466.422 464.679 466.529 464.603 466.654C464.527 466.778 464.479 466.918 464.461 467.062C464.443 467.207 464.456 467.354 464.499 467.493C464.542 467.632 464.614 467.761 464.71 467.87C475.743 480.457 486.467 493.47 496.88 506.91C496.969 507.023 497.016 507.163 497.014 507.307C497.012 507.45 496.962 507.589 496.87 507.7C482.21 525.7 466.15 543.697 448.69 561.69C419.663 591.583 394.083 617.503 371.95 639.45C351.983 659.257 331.603 678.627 310.81 697.56C310.357 697.973 310.45 698.03 311.09 697.73C315.35 695.73 319.57 693.64 323.75 691.46ZM615.71 483.75C614.237 485.03 613.82 486.417 614.46 487.91C615 489.177 615.95 489.897 617.31 490.07C618.703 490.243 620.127 489.823 621.58 488.81C620.68 490.79 619.8 492.75 618.94 494.69C617.653 497.563 615.527 499.553 612.56 500.66C606.02 503.093 599.307 503.677 592.42 502.41C591.087 502.17 590.943 502.26 591.99 502.68C601.697 506.633 611.783 508.817 622.25 509.23C622.577 509.243 622.899 509.163 623.18 509C628.087 506.173 632.42 502.63 636.18 498.37C636.271 498.264 636.324 498.13 636.331 497.989C636.339 497.848 636.299 497.708 636.22 497.59C635.22 496.183 633.333 493.8 630.56 490.44C623.733 482.153 615.593 476.15 606.14 472.43C605.547 472.197 605.223 472.153 605.17 472.3C605.145 472.378 605.188 472.479 605.29 472.581C605.392 472.684 605.546 472.78 605.72 472.85C610.473 474.817 614.297 477.303 617.19 480.31C617.977 481.137 618.71 481.727 619.39 482.08C620.523 482.687 621.097 482.993 621.11 483C622.87 484.267 623.897 485.203 624.19 485.81C624.657 486.797 624.453 486.987 623.58 486.38C623.427 486.273 623.273 486.13 623.12 485.95C621.18 483.65 618.71 482.917 615.71 483.75ZM595.94 488.81C598.6 490.51 600.537 489.997 601.75 487.27C601.775 487.215 601.787 487.155 601.785 487.094C601.783 487.033 601.768 486.972 601.74 486.915C601.711 486.858 601.671 486.807 601.621 486.765C601.571 486.723 601.513 486.691 601.45 486.67C597.823 485.51 595.853 483.03 595.54 479.23C595.473 478.377 595.273 477.78 594.94 477.44C594.333 476.813 593.593 476.763 592.72 477.29C592.59 477.366 592.476 477.472 592.383 477.603C592.29 477.734 592.221 477.886 592.18 478.05C590.96 482.843 592.213 486.43 595.94 488.81ZM601.39 481.85C601.283 482.263 601.007 482.667 600.56 483.06C599.247 484.227 599.56 484.79 601.5 484.75C602.993 484.717 604.077 484.063 604.75 482.79C605.583 482.35 606.22 481.613 606.66 480.58C606.688 480.516 606.7 480.446 606.693 480.376C606.687 480.306 606.662 480.239 606.623 480.18C606.583 480.122 606.529 480.073 606.466 480.04C606.402 480.007 606.332 479.99 606.26 479.99C604.187 480.01 602.563 480.63 601.39 481.85ZM612.46 484.29C611.833 484.403 611.66 484.577 611.94 484.81C612.019 484.875 612.123 484.912 612.237 484.915C612.351 484.919 612.47 484.889 612.58 484.83C613.693 484.25 613.653 484.07 612.46 484.29ZM610.609 490.319C610.75 490.09 610.827 489.823 610.834 489.536C610.841 489.248 610.779 488.943 610.65 488.641C610.522 488.338 610.33 488.042 610.086 487.77C609.842 487.498 609.55 487.255 609.227 487.056C608.575 486.653 607.836 486.451 607.173 486.493C606.51 486.535 605.977 486.819 605.691 487.281C605.55 487.51 605.473 487.777 605.466 488.064C605.459 488.352 605.521 488.657 605.65 488.96C605.778 489.262 605.97 489.558 606.214 489.83C606.458 490.102 606.75 490.345 607.073 490.544C607.725 490.947 608.464 491.149 609.127 491.107C609.79 491.065 610.323 490.781 610.609 490.319ZM660.25 504.79C662.977 506.297 666.56 507.867 671 509.5C676 511.34 685.063 515.193 698.19 521.06C704.217 523.753 711.57 526.22 720.25 528.46L732.25 531.71C734.157 532.39 736.07 533.043 737.99 533.67C738.177 533.73 738.347 533.8 738.5 533.88C739.84 534.613 739.633 534.82 737.88 534.5C737.687 534.46 737.473 534.407 737.24 534.34C726.34 531.067 715.277 528.57 704.05 526.85C693.417 525.217 688.06 524.393 687.98 524.38C672.093 521.673 656.203 519.01 640.31 516.39C639.963 516.337 639.947 516.377 640.26 516.51L686.29 535.81C686.537 535.917 686.853 535.953 687.24 535.92C687.753 535.873 688.507 535.9 689.5 536C713.7 538.433 731.78 540.46 743.74 542.08C754.38 543.52 765.053 544.647 775.76 545.46C776.08 545.487 776.093 545.43 775.8 545.29L739.5 527.78C719.733 517.34 699.81 507.243 679.73 497.49C679.049 497.156 678.262 497.095 677.53 497.32C672.057 498.967 666.57 500.79 661.07 502.79C660.803 502.89 660.42 503.003 659.92 503.13C658.227 503.563 658.337 504.117 660.25 504.79ZM488 676.21L445.95 709C445.603 709.273 445.64 709.393 446.06 709.36C446.267 709.347 446.473 709.287 446.68 709.18C455.647 704.433 464.587 699.637 473.5 694.79C502.953 679.29 532.11 663.247 560.97 646.66C562.337 645.88 563.767 645.243 565.26 644.75C566.1 644.47 566.397 644.753 566.15 645.6C564.117 652.433 561.39 659.117 557.97 665.65C555.71 669.963 553.617 674.357 551.69 678.83C551.183 679.997 551.363 680.053 552.23 679C553.103 677.927 553.943 676.83 554.75 675.71L556.95 675.07C557.273 674.98 557.549 674.785 557.73 674.52C564.043 665.66 570.097 656.627 575.89 647.42C576.623 646.253 577.593 644.857 578.8 643.23C579.82 641.857 580.79 640.45 581.71 639.01C582.377 637.963 583.41 636.597 584.81 634.91C585.917 633.57 586.877 632.127 587.69 630.58C588.077 629.847 588.647 629.12 589.4 628.4C590.093 627.74 590.683 627.003 591.17 626.19C592.57 623.85 593.28 622.667 593.3 622.64C598.247 615.94 603.06 609.143 607.74 602.25C609.28 599.983 611.6 596.77 614.7 592.61C617.073 589.423 619.327 586.157 621.46 582.81C622.133 581.75 623.023 580.72 624.13 579.72C625.63 578.367 626.503 577.293 626.75 576.5C627.25 574.893 628.563 573.04 630.69 570.94C631.243 570.387 632.187 568.887 633.52 566.44C633.587 566.314 633.606 566.169 633.575 566.033C633.543 565.896 633.463 565.778 633.35 565.7L632.71 565.25C633.083 564.863 633.28 564.447 633.3 564C633.313 563.633 633.16 563.563 632.84 563.79C629.807 565.91 626.827 568.103 623.9 570.37C620.88 572.71 617.93 574.93 615.05 577.03C609.077 581.39 603.303 586 597.73 590.86C596.783 591.687 595.493 592.603 593.86 593.61C592.493 594.45 591.207 595.393 590 596.44C587.013 599.02 585.197 600.547 584.55 601.02C576.983 606.553 565.57 615.317 550.31 627.31C529.557 643.63 508.787 659.93 488 676.21Z" fill="#001223"/>
<path d="M455.6 310.47L464.76 322.87C464.826 322.96 464.869 323.063 464.886 323.173C464.904 323.282 464.895 323.394 464.861 323.5C464.827 323.605 464.768 323.701 464.69 323.779C464.611 323.858 464.516 323.916 464.41 323.95C413.93 339.71 377.147 371.247 354.06 418.56C343.933 439.314 338.357 461.65 337.33 485.57C337.317 485.879 337.182 486.179 336.95 486.41L313.39 509.5C313.103 509.78 312.947 509.72 312.92 509.32C311.68 485.58 314.103 462.157 320.19 439.05C327.537 411.17 340.12 386.634 357.94 365.44C374.993 345.147 395.41 328.73 419.19 316.19C431.17 309.87 443.387 305.034 455.84 301.68C492.653 291.787 529.323 291.427 565.85 300.6C572.47 302.267 578.837 304.237 584.95 306.51C611.383 316.357 634.767 331.237 655.1 351.15C670.453 366.19 683.04 383.277 692.86 402.41C707.833 431.577 715.553 463.024 716.02 496.75C716.027 497.424 715.773 497.537 715.26 497.09L690.66 475.77C690.434 475.571 690.289 475.305 690.25 475.02C687.183 449.74 679.12 426.214 666.06 404.44C651.84 380.727 633.637 361.617 611.45 347.11C582.17 327.963 549.937 318.28 514.75 318.06C505.377 318.007 495.977 318.577 486.55 319.77C485.523 319.903 484.523 319.787 483.55 319.42C476.737 316.867 469.823 314.374 462.81 311.94C459.843 310.907 457.513 310.297 455.82 310.11C455.473 310.07 455.4 310.19 455.6 310.47Z" fill="#FBD3A4"/>
<path d="M642.79 431.75C642.643 432.184 642.38 432.434 642 432.5C641.87 432.524 641.725 432.502 641.58 432.435C641.436 432.368 641.297 432.259 641.18 432.12C632.64 421.767 623.527 411.947 613.84 402.66C603.967 393.2 594.333 385.917 584.94 380.81C560.827 367.697 532.71 354.55 500.59 341.37C499.123 340.77 497.74 340.027 496.44 339.14C496.373 339.094 496.01 338.74 495.35 338.08C494.723 337.46 493.94 337.364 493 337.79L484.85 327.5C483.89 326.287 484.13 325.974 485.57 326.56C504.623 334.3 523.34 342.384 541.72 350.81C541.867 350.877 547.107 353.26 557.44 357.96C572.307 364.707 584.973 371.157 595.44 377.31C599.147 379.49 602.867 382.427 606.6 386.12C608.48 387.98 611.683 391.457 616.21 396.55C625.997 407.57 634.857 419.304 642.79 431.75Z" fill="#8FCDE1"/>
<path d="M642.79 431.75C650.563 443.217 657.67 455.084 664.11 467.35C664.257 467.63 664.227 467.76 664.02 467.74C663.963 467.734 663.903 467.711 663.843 467.673C663.782 467.636 663.724 467.583 663.67 467.52C654.243 456.254 644.503 445.264 634.45 434.55C630.223 430.05 625.73 425.867 620.97 422C616.15 417.087 611.43 413.234 606.81 410.44C588.29 399.227 566.85 387.127 542.49 374.14C542.43 374.114 540.02 372.737 535.26 370.01C531.987 368.137 528.577 366.547 525.03 365.24C524.717 365.12 524.643 365.207 524.81 365.5C534.517 382.194 542.58 395.36 549 405C550.713 407.567 551.743 410.01 552.09 412.33C531.963 387.797 512.267 362.95 493 337.79C493.94 337.364 494.723 337.46 495.35 338.08C496.01 338.74 496.373 339.094 496.44 339.14C497.74 340.027 499.123 340.77 500.59 341.37C532.71 354.55 560.827 367.697 584.94 380.81C594.333 385.917 603.967 393.2 613.84 402.66C623.527 411.947 632.64 421.767 641.18 432.12C641.297 432.259 641.436 432.368 641.58 432.435C641.724 432.502 641.87 432.524 642 432.5C642.38 432.434 642.643 432.184 642.79 431.75Z" fill="#1F9CBC"/>
<path d="M620.97 422C620.037 422.313 619.15 422.21 618.31 421.69C608.923 415.876 598.403 412.146 586.75 410.5C576.763 409.086 565.21 409.696 552.09 412.33C551.743 410.01 550.713 407.566 549 405C542.58 395.36 534.517 382.193 524.81 365.5C524.643 365.206 524.717 365.12 525.03 365.24C528.577 366.546 531.987 368.136 535.26 370.01C540.02 372.736 542.43 374.113 542.49 374.14C566.85 387.126 588.29 399.226 606.81 410.44C611.43 413.233 616.15 417.086 620.97 422Z" fill="#0C4874"/>
<path d="M507.13 429.24C491.703 427.907 476.473 425.953 461.44 423.38C460.167 423.16 458.7 423.1 457.04 423.2C455.647 423.28 454.16 423.287 452.58 423.22C452.474 423.215 452.37 423.189 452.275 423.142C452.18 423.095 452.096 423.028 452.029 422.947C451.962 422.866 451.913 422.771 451.886 422.67C451.858 422.569 451.853 422.463 451.87 422.36C452.003 421.493 451.63 420.803 450.75 420.29L502.75 417.03C503.054 417.011 503.354 416.876 503.6 416.65C504.853 415.457 506.403 414.917 508.25 415.03C515.183 415.457 522.12 415.593 529.06 415.44C530.533 415.407 531.65 415.313 532.41 415.16C532.543 415.133 532.94 415.09 533.6 415.03C534.26 414.977 534.56 414.563 534.5 413.79C536.08 413.363 537.6 413.333 539.06 413.7C539.673 413.853 539.687 414.053 539.1 414.3C528.18 418.807 517.523 423.787 507.13 429.24Z" fill="#289AB9"/>
<path d="M534.5 413.79C534.56 414.563 534.26 414.977 533.6 415.03C532.94 415.09 532.543 415.133 532.41 415.16C531.65 415.313 530.533 415.407 529.06 415.44C522.12 415.593 515.183 415.457 508.25 415.03C506.403 414.917 504.853 415.457 503.6 416.65C503.354 416.876 503.054 417.011 502.75 417.03L450.75 420.29L429.81 421.54C429.755 421.542 429.701 421.559 429.653 421.587C429.606 421.616 429.567 421.656 429.539 421.703C429.511 421.751 429.495 421.805 429.494 421.861C429.492 421.916 429.505 421.971 429.53 422.02C430.497 423.86 431.923 425.083 433.81 425.69C441.563 428.177 450.18 430.6 459.66 432.96C462.907 433.767 465.883 434.657 468.59 435.63C471.55 436.697 474.467 437.77 477.34 438.85C478.387 439.25 478.36 439.55 477.26 439.75C465.047 441.99 452.96 444.753 441 448.04L440 447.96L441.52 447.17C441.658 447.099 441.776 447.001 441.863 446.884C441.951 446.767 442.004 446.635 442.02 446.5C442.16 445.293 442.967 444.357 444.44 443.69C446.96 442.543 449.13 441.653 450.95 441.02C452.057 440.64 454.337 440.197 457.79 439.69C460.177 439.343 462.637 438.797 465.17 438.05C466.91 437.537 466.937 436.95 465.25 436.29C463.35 435.543 461.183 435.6 458.75 436.46C457.31 436.34 455.863 436.307 454.41 436.36C452.83 436.413 451.413 436.27 450.16 435.93C427.807 429.883 405.57 423.677 383.45 417.31C382.817 417.123 382.83 417.02 383.49 417C398.997 416.493 414.503 416.067 430.01 415.72C436.103 415.58 442.763 415.393 449.99 415.16C478.15 414.26 506.32 413.803 534.5 413.79Z" fill="#8CCEE4"/>
<path d="M670.79 486C670.79 486.487 670.61 486.793 670.25 486.92C670.129 486.968 669.981 486.973 669.823 486.934C669.664 486.896 669.501 486.815 669.35 486.7C667.123 484.987 664.987 483.173 662.94 481.26C659.287 477.84 657.233 475.93 656.78 475.53C649.387 469.03 642.01 462.507 634.65 455.96C625.09 447.46 620.097 443.043 619.67 442.71C603.957 430.517 585.567 425.78 564.5 428.5C549.8 430.4 536.217 434.483 523.75 440.75C507.643 448.843 491.847 457.947 476.36 468.06C475.88 468.373 475.907 468.633 476.44 468.84L503.6 479.27C503.74 479.323 503.861 479.413 503.95 479.53C504.038 479.647 504.091 479.786 504.1 479.93C504.24 482.577 503.953 485.193 503.24 487.78C503.131 488.176 503.168 488.597 503.345 488.965C503.522 489.334 503.826 489.623 504.2 489.78L515.95 494.74C516.392 494.928 516.745 495.277 516.935 495.715C517.125 496.153 517.137 496.646 516.97 497.09L515.42 501.29C515.36 501.449 515.333 501.613 515.34 501.771C515.347 501.928 515.388 502.075 515.46 502.2C515.8 502.8 516.337 503.213 517.07 503.44C517.237 503.491 517.387 503.583 517.508 503.709C517.628 503.834 517.715 503.989 517.759 504.157C517.803 504.326 517.803 504.502 517.76 504.671C517.716 504.84 517.63 504.994 517.51 505.12C511.81 511.033 505.963 516.853 499.97 522.58C490.477 531.66 485.657 536.27 485.51 536.41C459.763 561.41 433.833 586.217 407.72 610.83C404.06 614.277 399.26 618.9 393.32 624.7C386.067 631.767 380.607 636.847 376.94 639.94C370.593 645.287 364.383 650.783 358.31 656.43C354.503 659.977 349.543 664.42 343.43 669.76C336.557 675.773 329.963 682.09 323.65 688.71C323.548 688.819 323.473 688.951 323.431 689.097C323.39 689.243 323.382 689.398 323.41 689.55L323.75 691.46C319.57 693.64 315.35 695.73 311.09 697.73C310.45 698.03 310.357 697.973 310.81 697.56C331.603 678.627 351.983 659.257 371.95 639.45C394.083 617.503 419.663 591.583 448.69 561.69C466.15 543.697 482.21 525.7 496.87 507.7C496.962 507.589 497.012 507.45 497.014 507.307C497.016 507.163 496.969 507.023 496.88 506.91C486.467 493.47 475.743 480.457 464.71 467.87C464.614 467.761 464.542 467.632 464.499 467.493C464.456 467.354 464.443 467.207 464.461 467.062C464.479 466.918 464.527 466.778 464.603 466.654C464.679 466.529 464.78 466.422 464.9 466.34C481.007 455.307 497.52 445.257 514.44 436.19C520.213 433.09 526.703 430.15 533.91 427.37C548.977 421.563 564.59 419.13 580.75 420.07C597.277 421.037 611.56 426.603 623.6 436.77C625.62 438.47 630.35 443.167 637.79 450.86C648.963 462.407 659.963 474.12 670.79 486Z" fill="#EC6A40"/>
<path d="M450.75 420.29C451.63 420.803 452.003 421.493 451.87 422.36C451.853 422.463 451.858 422.569 451.886 422.67C451.913 422.772 451.962 422.866 452.029 422.947C452.096 423.028 452.18 423.095 452.275 423.142C452.37 423.189 452.474 423.216 452.58 423.22C454.16 423.287 455.647 423.28 457.04 423.2C458.7 423.1 460.167 423.16 461.44 423.38C476.473 425.953 491.703 427.907 507.13 429.24C488.337 439.653 470.043 451.083 452.25 463.53C452.097 463.637 451.967 463.773 451.868 463.931C451.77 464.089 451.706 464.265 451.681 464.446C451.655 464.627 451.669 464.811 451.72 464.984C451.772 465.157 451.86 465.316 451.98 465.45L464.61 479.74L467.53 484.62C468.403 486.067 468.167 487.13 466.82 487.81C458.7 491.91 450.603 496.05 442.53 500.23C442.49 500.257 437.147 503.147 426.5 508.9C417.827 513.593 408.917 517.81 399.77 521.55C398.177 522.203 398.087 523.033 399.5 524.04L373.49 526.47C373.137 526.503 373.117 526.427 373.43 526.24L432.87 490.38C432.934 490.342 432.988 490.289 433.027 490.226C433.065 490.162 433.088 490.09 433.092 490.016C433.096 489.941 433.081 489.867 433.049 489.8C433.018 489.733 432.97 489.674 432.91 489.63L412.91 474.8C412.869 474.769 412.836 474.728 412.816 474.681C412.795 474.634 412.787 474.582 412.792 474.531C412.797 474.48 412.815 474.431 412.844 474.388C412.874 474.346 412.914 474.312 412.96 474.29C421.207 470.49 429.527 466.857 437.92 463.39C444.413 460.71 451.053 457.6 457.84 454.06C458.447 453.747 458.427 453.48 457.78 453.26C452.107 451.347 446.587 449.857 441.22 448.79C441.027 448.757 440.897 448.687 440.83 448.58C440.717 448.407 440.773 448.227 441 448.04C452.96 444.753 465.047 441.99 477.26 439.75C478.36 439.55 478.387 439.25 477.34 438.85C474.467 437.77 471.55 436.697 468.59 435.63C465.883 434.657 462.907 433.767 459.66 432.96C450.18 430.6 441.563 428.177 433.81 425.69C431.923 425.083 430.497 423.86 429.53 422.02C429.505 421.971 429.492 421.916 429.494 421.861C429.495 421.805 429.511 421.751 429.539 421.703C429.567 421.656 429.606 421.616 429.653 421.587C429.701 421.559 429.755 421.542 429.81 421.54L450.75 420.29Z" fill="#0C4874"/>
<path d="M670.79 486L672.74 487.94C673.18 488.373 673.087 488.617 672.46 488.67C670.547 488.83 668.983 489.123 667.77 489.55C661.003 491.903 654.25 494.31 647.51 496.77C645.777 490.29 642.78 484.53 638.52 479.49C635.14 475.49 632.697 472.763 631.19 471.31C623.89 464.27 615.45 459.723 605.87 457.67C601.223 456.677 595.913 456.48 589.94 457.08C584.987 457.573 579.693 458.4 574.06 459.56C557.94 462.893 545.4 465.7 536.44 467.98C532.413 468.52 531.827 469.293 534.68 470.3C534.9 471.933 535.483 473.127 536.43 473.88C537.103 474.407 537.457 474.687 537.49 474.72C541.59 478.673 545.64 482.63 549.64 486.59C556.16 493.977 562.993 501 570.14 507.66C570.186 507.703 570.222 507.755 570.246 507.812C570.27 507.87 570.281 507.932 570.279 507.995C570.277 508.057 570.262 508.118 570.235 508.174C570.207 508.23 570.168 508.28 570.12 508.32L548.8 526.08C547.993 526.747 548.117 527.123 549.17 527.21L583.86 530.05C585.02 530.15 585.09 530.487 584.07 531.06C556.977 546.373 530.173 562.18 503.66 578.48C464.56 602.513 438.153 618.917 424.44 627.69C407.267 638.67 394.12 646.69 385 651.75C375.513 657.017 367.4 662.417 360.66 667.95C358.333 670.99 355.33 673.27 351.65 674.79C349.703 675.597 347.96 676.733 346.42 678.2C345.66 678.933 344.757 679.37 343.71 679.51C341.857 679.757 340.363 680.6 339.23 682.04C339.043 682.28 338.787 682.467 338.46 682.6L333.38 684.72C333.33 684.742 333.286 684.777 333.252 684.821C333.217 684.865 333.192 684.918 333.179 684.977C333.166 685.035 333.164 685.098 333.175 685.16C333.185 685.223 333.208 685.284 333.24 685.34C333.42 685.667 333.52 686.053 333.54 686.5L323.75 691.46L323.41 689.55C323.382 689.398 323.39 689.243 323.431 689.097C323.473 688.951 323.548 688.819 323.65 688.71C329.963 682.09 336.557 675.773 343.43 669.76C349.543 664.42 354.503 659.977 358.31 656.43C364.383 650.783 370.593 645.287 376.94 639.94C380.607 636.847 386.067 631.767 393.32 624.7C399.26 618.9 404.06 614.277 407.72 610.83C433.833 586.217 459.763 561.41 485.51 536.41C485.657 536.27 490.477 531.66 499.97 522.58C505.963 516.853 511.81 511.033 517.51 505.12C517.63 504.994 517.716 504.84 517.76 504.671C517.803 504.502 517.803 504.326 517.759 504.157C517.715 503.989 517.628 503.834 517.508 503.709C517.387 503.583 517.236 503.491 517.07 503.44C516.337 503.213 515.8 502.8 515.46 502.2C515.388 502.075 515.347 501.928 515.34 501.771C515.333 501.613 515.36 501.449 515.42 501.29L516.97 497.09C517.137 496.646 517.125 496.153 516.935 495.715C516.745 495.277 516.392 494.928 515.95 494.74L504.2 489.78C503.826 489.623 503.522 489.334 503.345 488.965C503.168 488.597 503.131 488.176 503.24 487.78C503.953 485.193 504.24 482.577 504.1 479.93C504.091 479.786 504.038 479.647 503.95 479.53C503.861 479.413 503.74 479.323 503.6 479.27L476.44 468.84C475.907 468.633 475.88 468.373 476.36 468.06C491.847 457.947 507.643 448.843 523.75 440.75C536.217 434.483 549.8 430.4 564.5 428.5C585.567 425.78 603.957 430.517 619.67 442.71C620.097 443.043 625.09 447.46 634.65 455.96C642.01 462.507 649.387 469.03 656.78 475.53C657.233 475.93 659.287 477.84 662.94 481.26C664.987 483.173 667.123 484.987 669.35 486.7C669.501 486.815 669.664 486.896 669.823 486.934C669.981 486.973 670.129 486.968 670.25 486.92C670.61 486.793 670.79 486.487 670.79 486Z" fill="#BF3409"/>
<path d="M440 447.96C425.667 451.467 411.443 455.37 397.33 459.67C397.27 459.69 396.543 459.88 395.15 460.24C393.47 460.673 392.253 461.343 391.5 462.25C374.8 482.303 358.093 502.35 341.38 522.39C323.127 544.283 305.167 566.417 287.5 588.79C287.3 589.042 287.013 589.216 286.69 589.28L285.75 589.46C320.583 543.38 355.087 497.05 389.26 450.47C389.461 450.204 389.731 450.011 390.03 449.92C392.457 449.193 396.843 448.2 403.19 446.94C421.677 443.267 440.197 439.773 458.75 436.46C461.183 435.6 463.35 435.543 465.25 436.29C466.937 436.95 466.91 437.537 465.17 438.05C462.637 438.797 460.177 439.343 457.79 439.69C454.337 440.197 452.057 440.64 450.95 441.02C449.13 441.653 446.96 442.543 444.44 443.69C442.967 444.357 442.16 445.293 442.02 446.5C442.004 446.635 441.951 446.767 441.863 446.884C441.776 447.001 441.658 447.099 441.52 447.17L440 447.96Z" fill="#8FD6E5"/>
<path d="M440 447.96L441 448.04C440.773 448.227 440.717 448.407 440.83 448.58C440.897 448.687 441.027 448.757 441.22 448.79C446.587 449.857 452.107 451.347 457.78 453.26C458.427 453.48 458.447 453.747 457.84 454.06C451.053 457.6 444.413 460.71 437.92 463.39C429.527 466.857 421.207 470.49 412.96 474.29C412.914 474.312 412.874 474.346 412.844 474.388C412.815 474.431 412.797 474.48 412.792 474.531C412.787 474.582 412.795 474.634 412.816 474.681C412.836 474.728 412.869 474.769 412.91 474.8L432.91 489.63C432.97 489.674 433.018 489.733 433.049 489.8C433.081 489.867 433.096 489.941 433.092 490.016C433.088 490.09 433.065 490.162 433.027 490.226C432.988 490.289 432.934 490.342 432.87 490.38L373.43 526.24C373.117 526.427 373.137 526.503 373.49 526.47L399.5 524.04L440.26 519.75C441.147 519.657 441.193 519.81 440.4 520.21C425.2 527.837 410.15 535.78 395.25 544.04L317.92 585.95C316.64 586.643 316.693 586.763 318.08 586.31C335.827 580.543 353.747 574.657 371.84 568.65C398.687 559.743 425.833 551.807 453.28 544.84L441.89 557.37C441.479 557.82 440.88 558.164 440.17 558.36C421.65 563.547 404.27 568.707 388.03 573.84C347.583 586.613 307.293 599.9 267.16 613.7C266.84 613.807 266.783 613.727 266.99 613.46L285.75 589.46L286.69 589.28C287.013 589.216 287.3 589.042 287.5 588.79C305.167 566.417 323.127 544.283 341.38 522.39C358.093 502.35 374.8 482.303 391.5 462.25C392.253 461.343 393.47 460.673 395.15 460.24C396.543 459.88 397.27 459.69 397.33 459.67C411.443 455.37 425.667 451.467 440 447.96Z" fill="#1A9DBE"/>
<path d="M647.51 496.77C645.47 495.297 643.363 493.06 641.19 490.06C637.217 484.593 632.02 479.37 625.6 474.39C616.753 467.517 606.72 463.637 595.5 462.75C593.027 462.557 589.073 462.65 583.64 463.03C580.7 463.237 576.78 463.633 571.88 464.22C560.107 465.64 548.293 466.893 536.44 467.98C545.4 465.7 557.94 462.893 574.06 459.56C579.693 458.4 584.987 457.573 589.94 457.08C595.913 456.48 601.223 456.677 605.87 457.67C615.45 459.723 623.89 464.27 631.19 471.31C632.697 472.763 635.14 475.49 638.52 479.49C642.78 484.53 645.777 490.29 647.51 496.77Z" fill="#E76241"/>
<path d="M534.68 470.3C546.04 478.993 557.573 487.453 569.28 495.68C569.347 495.726 571.583 497.356 575.99 500.57C581.657 504.696 587.677 508.243 594.05 511.21C600.537 514.223 607.353 515.916 614.5 516.29C615.527 517.65 615.257 518.45 613.69 518.69C606.77 519.743 600.1 519.09 593.68 516.73C590 515.376 584.523 512.066 577.25 506.8C568.017 500.106 558.813 493.37 549.64 486.59C545.64 482.63 541.59 478.673 537.49 474.72C537.457 474.686 537.103 474.406 536.43 473.88C535.483 473.126 534.9 471.933 534.68 470.3Z" fill="#B72A38"/>
<path d="M621.58 488.81C621.047 488.043 620.373 487.503 619.56 487.19C618.02 486.596 616.737 485.45 615.71 483.75C618.71 482.916 621.18 483.65 623.12 485.95C623.273 486.13 623.427 486.273 623.58 486.38C624.453 486.986 624.657 486.796 624.19 485.81C623.897 485.203 622.87 484.266 621.11 483C621.097 482.993 620.523 482.686 619.39 482.08C618.71 481.726 617.977 481.136 617.19 480.31C614.297 477.303 610.473 474.816 605.72 472.85C605.546 472.78 605.392 472.683 605.29 472.581C605.188 472.479 605.145 472.378 605.17 472.3C605.223 472.153 605.547 472.196 606.14 472.43C615.593 476.15 623.733 482.153 630.56 490.44C633.333 493.8 635.22 496.183 636.22 497.59C636.299 497.708 636.339 497.848 636.331 497.989C636.324 498.129 636.271 498.263 636.18 498.37C632.42 502.63 628.087 506.173 623.18 509C622.899 509.163 622.577 509.243 622.25 509.23C611.783 508.816 601.697 506.633 591.99 502.68C590.943 502.26 591.087 502.17 592.42 502.41C599.307 503.676 606.02 503.093 612.56 500.66C615.527 499.553 617.653 497.563 618.94 494.69C619.8 492.75 620.68 490.79 621.58 488.81Z" fill="#8FD6E5"/>
<path d="M595.94 488.81C592.213 486.43 590.96 482.843 592.18 478.05C592.221 477.886 592.29 477.734 592.383 477.603C592.476 477.472 592.59 477.366 592.72 477.29C593.593 476.763 594.333 476.813 594.94 477.44C595.273 477.78 595.473 478.377 595.54 479.23C595.853 483.03 597.823 485.51 601.45 486.67C601.513 486.69 601.571 486.723 601.621 486.765C601.671 486.807 601.711 486.858 601.739 486.915C601.768 486.972 601.783 487.033 601.785 487.094C601.787 487.155 601.775 487.215 601.75 487.27C600.537 489.997 598.6 490.51 595.94 488.81Z" fill="#3C0F21"/>
<path d="M464.61 479.74L484.83 504.93C484.985 505.129 485.074 505.369 485.083 505.614C485.092 505.859 485.021 506.097 484.88 506.29C479.347 513.83 473.733 520.9 468.04 527.5C468.113 527.087 468.05 526.774 467.85 526.56C467.771 526.472 467.643 526.418 467.484 526.403C467.325 526.389 467.142 526.416 466.96 526.48C444.227 534.367 421.09 540.817 397.55 545.83C396.857 545.977 396.333 545.937 395.98 545.71C395.46 545.384 395.217 544.827 395.25 544.04C410.15 535.78 425.2 527.837 440.4 520.21C441.193 519.81 441.147 519.657 440.26 519.75L399.5 524.04C398.087 523.034 398.177 522.204 399.77 521.55C408.917 517.81 417.827 513.594 426.5 508.9C437.147 503.147 442.49 500.257 442.53 500.23C450.603 496.05 458.7 491.91 466.82 487.81C468.167 487.13 468.403 486.067 467.53 484.62L464.61 479.74Z" fill="#103459"/>
<path d="M604.75 482.79L601.39 481.85C602.563 480.63 604.187 480.01 606.26 479.99C606.332 479.99 606.402 480.007 606.466 480.04C606.529 480.074 606.583 480.122 606.623 480.18C606.662 480.239 606.687 480.306 606.693 480.376C606.7 480.446 606.688 480.516 606.66 480.58C606.22 481.614 605.583 482.35 604.75 482.79Z" fill="#999EA9"/>
<path d="M601.39 481.85L604.75 482.79C604.077 484.063 602.993 484.717 601.5 484.75C599.56 484.79 599.247 484.227 600.56 483.06C601.007 482.667 601.283 482.263 601.39 481.85Z" fill="#999EA9"/>
<path d="M615.71 483.75C616.737 485.45 618.02 486.597 619.56 487.19C620.373 487.503 621.047 488.043 621.58 488.81C620.127 489.823 618.703 490.243 617.31 490.07C615.95 489.897 615 489.177 614.46 487.91C613.82 486.417 614.237 485.03 615.71 483.75Z" fill="#B6CBD2"/>
<path d="M612.46 484.29C613.653 484.07 613.693 484.25 612.58 484.83C612.47 484.889 612.351 484.919 612.237 484.915C612.123 484.912 612.019 484.875 611.94 484.81C611.66 484.577 611.833 484.403 612.46 484.29Z" fill="#103459"/>
<path d="M607.073 490.544C608.431 491.383 610.014 491.282 610.609 490.318C611.204 489.355 610.585 487.894 609.227 487.056C607.869 486.217 606.286 486.318 605.691 487.281C605.096 488.245 605.715 489.705 607.073 490.544Z" fill="#999EA9"/>
<path d="M549.64 486.59C558.813 493.37 568.017 500.107 577.25 506.8C584.523 512.067 590 515.376 593.68 516.73C600.1 519.09 606.77 519.743 613.69 518.69C615.257 518.45 615.527 517.65 614.5 516.29C617.48 516.323 619.567 516.303 620.76 516.23C624.053 516.023 624.18 516.563 621.14 517.85C614.82 520.53 609.52 524.446 605.24 529.6C605.093 529.773 605.017 529.933 605.01 530.08C604.99 530.413 605.237 530.47 605.75 530.25C608.07 529.257 610.32 528.557 612.5 528.15C612.68 528.117 615.003 527.797 619.47 527.19C632.877 525.37 645.727 527.48 658.02 533.52C654.847 533.973 651.677 534.416 648.51 534.85C645.21 535.303 642.067 535.893 639.08 536.62C631.2 538.527 623.343 540.533 615.51 542.64C614.063 543.027 611.457 543.877 607.69 545.19C580.11 554.783 554.567 566.49 531.06 580.31C497.867 599.83 461.097 623.837 420.75 652.33C420.297 652.657 419.313 653.456 417.8 654.73C416.813 655.556 415.76 656.277 414.64 656.89C412.213 658.217 410.603 659.183 409.81 659.79C404.923 663.53 401.967 665.747 400.94 666.44C399.887 667.147 398.42 667.417 396.54 667.25L404.71 657C404.977 657.54 405.387 657.797 405.94 657.77C406.078 657.764 406.225 657.72 406.369 657.641C406.514 657.562 406.654 657.449 406.78 657.31C411.807 651.85 418.443 645.06 426.69 636.94C426.877 636.753 426.913 636.59 426.8 636.45C426.742 636.381 426.649 636.338 426.535 636.327C426.422 636.316 426.293 636.338 426.17 636.39C416.83 640.417 409.71 643.723 404.81 646.31C390.317 653.963 375.6 661.177 360.66 667.95C367.4 662.417 375.513 657.017 385 651.75C394.12 646.69 407.267 638.67 424.44 627.69C438.153 618.917 464.56 602.513 503.66 578.48C530.173 562.18 556.977 546.373 584.07 531.06C585.09 530.487 585.02 530.15 583.86 530.05L549.17 527.21C548.117 527.123 547.993 526.747 548.8 526.08L570.12 508.32C570.168 508.28 570.207 508.23 570.235 508.174C570.262 508.118 570.277 508.057 570.279 507.994C570.281 507.932 570.27 507.87 570.246 507.812C570.222 507.754 570.186 507.703 570.14 507.66C562.993 501 556.16 493.977 549.64 486.59Z" fill="#871426"/>
<path d="M739.5 527.78C730.54 526.167 722.043 523.216 714.01 518.93C713.79 518.81 713.473 518.723 713.06 518.67C712.627 518.616 712.313 518.443 712.12 518.15C712.013 517.986 711.899 517.845 711.785 517.737C711.671 517.628 711.56 517.554 711.46 517.52C706.72 515.807 702.003 514.03 697.31 512.19C696.01 511.676 695.03 511.146 694.37 510.6C694.09 510.36 693.8 510.213 693.5 510.16C688.553 509.233 683.893 507.503 679.52 504.97C678.06 504.13 676.567 503.94 675.04 504.4C674.899 504.441 674.777 504.53 674.695 504.65C674.612 504.771 674.575 504.916 674.59 505.06C674.697 506.093 675.103 506.803 675.81 507.19C678.063 508.41 681.263 509.856 685.41 511.53C688.87 512.923 692.09 514.317 695.07 515.71C702.297 519.083 708.023 521.43 712.25 522.75C716.283 524.01 719.563 525.207 722.09 526.34C723.557 526.993 724.87 527.493 726.03 527.84C727.39 528.247 728.74 528.676 730.08 529.13C731.34 529.55 732.063 530.41 732.25 531.71L720.25 528.46L719.98 527.31C719.944 527.154 719.876 527.013 719.784 526.904C719.692 526.794 719.58 526.72 719.46 526.69C714.153 525.276 709.003 523.43 704.01 521.15C703.837 521.063 703.58 520.866 703.24 520.56C702.847 520.2 702.343 520.06 701.73 520.14C701.384 520.192 701.058 520.161 700.79 520.05L662.46 504.18C662.343 504.133 662.203 504.115 662.048 504.127C661.893 504.139 661.727 504.181 661.56 504.25L660.25 504.79C658.337 504.116 658.227 503.563 659.92 503.13C660.42 503.003 660.803 502.89 661.07 502.79C666.57 500.79 672.057 498.966 677.53 497.32C678.262 497.095 679.049 497.156 679.73 497.49C699.81 507.243 719.733 517.34 739.5 527.78Z" fill="#F6CDA2"/>
<path d="M720.25 528.46C711.57 526.22 704.217 523.753 698.19 521.06C685.063 515.193 676 511.34 671 509.5C666.56 507.866 662.977 506.296 660.25 504.79L661.56 504.25C661.727 504.181 661.893 504.139 662.048 504.127C662.203 504.115 662.343 504.133 662.46 504.18L700.79 520.05C701.058 520.161 701.384 520.192 701.73 520.14C702.343 520.06 702.847 520.2 703.24 520.56C703.58 520.866 703.837 521.063 704.01 521.15C709.003 523.43 714.153 525.276 719.46 526.69C719.58 526.72 719.692 526.794 719.784 526.904C719.876 527.013 719.944 527.154 719.98 527.31L720.25 528.46Z" fill="#BA5737"/>
<path d="M739.5 527.78L775.8 545.29C776.093 545.43 776.08 545.487 775.76 545.46C765.053 544.647 754.38 543.52 743.74 542.08C731.78 540.46 713.7 538.433 689.5 536C688.507 535.9 687.753 535.873 687.24 535.92C686.853 535.953 686.537 535.917 686.29 535.81L640.26 516.51C639.947 516.377 639.963 516.337 640.31 516.39C656.203 519.01 672.093 521.673 687.98 524.38C688.06 524.393 693.417 525.217 704.05 526.85C715.277 528.57 726.34 531.067 737.24 534.34C737.473 534.407 737.687 534.46 737.88 534.5C739.633 534.82 739.84 534.613 738.5 533.88C738.347 533.8 738.177 533.73 737.99 533.67C736.07 533.043 734.157 532.39 732.25 531.71C732.063 530.41 731.34 529.55 730.08 529.13C728.74 528.677 727.39 528.247 726.03 527.84C724.87 527.493 723.557 526.993 722.09 526.34C719.563 525.207 716.283 524.01 712.25 522.75C708.023 521.43 702.297 519.083 695.07 515.71C692.09 514.317 688.87 512.923 685.41 511.53C681.263 509.857 678.063 508.41 675.81 507.19C675.103 506.803 674.697 506.093 674.59 505.06C674.575 504.916 674.612 504.771 674.695 504.651C674.777 504.53 674.899 504.441 675.04 504.4C676.567 503.94 678.06 504.13 679.52 504.97C683.893 507.503 688.553 509.233 693.5 510.16C693.8 510.213 694.09 510.36 694.37 510.6C695.03 511.147 696.01 511.677 697.31 512.19C702.003 514.03 706.72 515.807 711.46 517.52C711.56 517.554 711.671 517.628 711.785 517.737C711.899 517.845 712.013 517.986 712.12 518.15C712.313 518.443 712.627 518.617 713.06 518.67C713.473 518.723 713.79 518.81 714.01 518.93C722.043 523.217 730.54 526.167 739.5 527.78Z" fill="#FBD6AC"/>
<path d="M468.04 527.5L453.28 544.84C425.833 551.807 398.687 559.743 371.84 568.65C353.747 574.657 335.827 580.543 318.08 586.31C316.693 586.763 316.64 586.643 317.92 585.95L395.25 544.04C395.217 544.827 395.46 545.383 395.98 545.71C396.333 545.937 396.857 545.977 397.55 545.83C421.09 540.817 444.227 534.367 466.96 526.48C467.142 526.416 467.325 526.389 467.484 526.403C467.643 526.417 467.771 526.472 467.85 526.56C468.05 526.773 468.113 527.087 468.04 527.5Z" fill="#0C4874"/>
<path d="M658.02 533.52C664.133 535.033 669.997 537.347 675.61 540.46C676.217 540.8 676.177 541.017 675.49 541.11C659.01 543.29 642.647 546.607 626.4 551.06C600.393 558.193 575.273 567.68 551.04 579.52C537.853 585.967 524.893 592.84 512.16 600.14C494.547 610.247 477.203 620.793 460.13 631.78C449.643 638.527 444.337 641.943 444.21 642.03C424.257 654.817 404.603 667.88 385.25 681.22C383.983 682.093 383.85 681.95 384.85 680.79L396.54 667.25C398.42 667.417 399.887 667.147 400.94 666.44C401.967 665.747 404.923 663.53 409.81 659.79C410.603 659.183 412.213 658.217 414.64 656.89C415.76 656.277 416.813 655.557 417.8 654.73C419.313 653.457 420.297 652.657 420.75 652.33C461.097 623.837 497.867 599.83 531.06 580.31C554.567 566.49 580.11 554.783 607.69 545.19C611.457 543.877 614.063 543.027 615.51 542.64C623.343 540.533 631.2 538.527 639.08 536.62C642.067 535.893 645.21 535.303 648.51 534.85C651.677 534.417 654.847 533.973 658.02 533.52Z" fill="#C12933"/>
<path d="M632.71 565.25C615.19 588.75 598.063 612.537 581.33 636.61C579.25 639.61 577.21 642.633 575.21 645.68C573.91 645.553 573.67 645.07 574.49 644.23C576.203 642.463 577.4 640.45 578.08 638.19C578.593 636.497 579.167 635.193 579.8 634.28C586.18 625.107 590.017 619.367 591.31 617.06C595.503 609.62 600.007 602.367 604.82 595.3C605.867 593.767 605.62 593.52 604.08 594.56C602.98 595.3 601.693 595.99 600.22 596.63C598.68 597.303 597.41 597.993 596.41 598.7C591.55 602.16 586.713 605.653 581.9 609.18C551.133 631.707 520.43 654.313 489.79 677C489.17 676.887 488.573 676.623 488 676.21C508.787 659.93 529.557 643.63 550.31 627.31C565.57 615.317 576.983 606.553 584.55 601.02C585.197 600.547 587.013 599.02 590 596.44C591.207 595.393 592.493 594.45 593.86 593.61C595.493 592.603 596.783 591.687 597.73 590.86C603.303 586 609.077 581.39 615.05 577.03C617.93 574.93 620.88 572.71 623.9 570.37C626.827 568.103 629.807 565.91 632.84 563.79C633.16 563.563 633.313 563.633 633.3 564C633.28 564.447 633.083 564.863 632.71 565.25Z" fill="#E8714D"/>
<path d="M632.71 565.25L633.35 565.7C633.463 565.778 633.543 565.896 633.575 566.033C633.606 566.169 633.587 566.314 633.52 566.44C632.187 568.887 631.243 570.387 630.69 570.94C628.563 573.04 627.25 574.893 626.75 576.5C626.503 577.293 625.63 578.367 624.13 579.72C623.023 580.72 622.133 581.75 621.46 582.81C619.327 586.157 617.073 589.423 614.7 592.61C611.6 596.77 609.28 599.983 607.74 602.25C603.06 609.143 598.247 615.94 593.3 622.64C593.28 622.667 592.57 623.85 591.17 626.19C590.683 627.003 590.093 627.74 589.4 628.4C588.647 629.12 588.077 629.847 587.69 630.58C586.877 632.127 585.917 633.57 584.81 634.91C583.41 636.597 582.377 637.963 581.71 639.01C580.79 640.45 579.82 641.857 578.8 643.23C577.593 644.857 576.623 646.253 575.89 647.42C570.097 656.627 564.043 665.66 557.73 674.52C557.549 674.785 557.273 674.98 556.95 675.07L554.75 675.71L575.21 645.68C577.21 642.633 579.25 639.61 581.33 636.61C598.063 612.537 615.19 588.75 632.71 565.25Z" fill="#250511"/>
<path d="M575.21 645.68L554.75 675.71C553.943 676.83 553.103 677.927 552.23 679C551.363 680.053 551.183 679.997 551.69 678.83C553.617 674.357 555.71 669.964 557.97 665.65C561.39 659.117 564.117 652.433 566.15 645.6C566.397 644.753 566.1 644.47 565.26 644.75C563.767 645.243 562.337 645.88 560.97 646.66C532.11 663.247 502.953 679.29 473.5 694.79C471.9 694.963 471.403 694.493 472.01 693.38C472.157 693.12 472.27 692.847 472.35 692.56C472.45 692.187 472.583 691.917 472.75 691.75C478.037 686.383 483.717 681.467 489.79 677C520.43 654.313 551.133 631.707 581.9 609.18C586.713 605.653 591.55 602.16 596.41 598.7C597.41 597.994 598.68 597.303 600.22 596.63C601.693 595.99 602.98 595.3 604.08 594.56C605.62 593.52 605.867 593.767 604.82 595.3C600.007 602.367 595.503 609.62 591.31 617.06C590.017 619.367 586.18 625.107 579.8 634.28C579.167 635.194 578.593 636.497 578.08 638.19C577.4 640.45 576.203 642.463 574.49 644.23C573.67 645.07 573.91 645.553 575.21 645.68ZM540.3 654.43C543.313 652.723 546.323 651.017 549.33 649.31C550.363 648.723 552.187 647.527 554.8 645.72C556.607 644.473 558.503 643.384 560.49 642.45C563.51 641.03 565.733 639.84 567.16 638.88C569.007 637.633 570.847 636.373 572.68 635.1C574.893 633.573 576.51 632.06 577.53 630.56C578.877 628.587 579.93 626.37 580.69 623.91C581.043 622.763 580.74 622.55 579.78 623.27C573.22 628.23 566.393 633.01 559.3 637.61C544.427 647.263 529.463 656.777 514.41 666.15C514.063 666.364 513.817 666.617 513.67 666.91C513.19 667.857 513.463 668.213 514.49 667.98C514.803 667.907 515.163 667.754 515.57 667.52C521.063 664.427 526.727 661.69 532.56 659.31C533.653 658.863 534.97 658.08 536.51 656.96C538.01 655.86 539.273 655.017 540.3 654.43Z" fill="#BA3010"/>
<path d="M536.51 656.96C534.97 658.08 533.653 658.863 532.56 659.31C526.727 661.69 521.063 664.427 515.57 667.52C515.163 667.753 514.803 667.907 514.49 667.98C513.463 668.213 513.19 667.857 513.67 666.91C513.817 666.617 514.063 666.363 514.41 666.15C529.463 656.777 544.427 647.263 559.3 637.61C566.393 633.01 573.22 628.23 579.78 623.27C580.74 622.55 581.043 622.763 580.69 623.91C579.93 626.37 578.877 628.587 577.53 630.56C576.51 632.06 574.893 633.573 572.68 635.1C570.847 636.373 569.007 637.633 567.16 638.88C565.733 639.84 563.51 641.03 560.49 642.45C558.503 643.383 556.607 644.473 554.8 645.72C552.187 647.527 550.363 648.723 549.33 649.31C546.323 651.017 543.313 652.723 540.3 654.43C539.273 655.017 538.01 655.86 536.51 656.96Z" fill="#84141C"/>
<path d="M404.71 657L410.04 649.48C410.733 648.5 410.53 648.26 409.43 648.76C399.91 653.074 390.547 657.614 381.34 662.38C365.493 670.587 349.56 678.627 333.54 686.5C333.52 686.054 333.42 685.667 333.24 685.34C333.208 685.284 333.185 685.223 333.175 685.161C333.164 685.098 333.166 685.035 333.179 684.977C333.192 684.918 333.217 684.865 333.252 684.821C333.286 684.777 333.33 684.742 333.38 684.72L338.46 682.6C338.787 682.467 339.043 682.28 339.23 682.04C340.363 680.6 341.857 679.757 343.71 679.51C344.757 679.37 345.66 678.934 346.42 678.2C347.96 676.734 349.703 675.597 351.65 674.79C355.33 673.27 358.333 670.99 360.66 667.95C375.6 661.177 390.317 653.964 404.81 646.31C409.71 643.724 416.83 640.417 426.17 636.39C426.293 636.339 426.422 636.317 426.535 636.327C426.649 636.338 426.742 636.381 426.8 636.45C426.913 636.59 426.877 636.754 426.69 636.94C418.443 645.06 411.807 651.85 406.78 657.31C406.654 657.449 406.514 657.562 406.369 657.641C406.225 657.72 406.078 657.764 405.94 657.77C405.387 657.797 404.977 657.54 404.71 657Z" fill="#B72A38"/>
<path d="M488 676.21C488.573 676.623 489.17 676.887 489.79 677C483.717 681.467 478.037 686.383 472.75 691.75C472.583 691.917 472.45 692.187 472.35 692.56C472.27 692.847 472.157 693.12 472.01 693.38C471.403 694.493 471.9 694.963 473.5 694.79C464.587 699.637 455.647 704.433 446.68 709.18C446.473 709.287 446.267 709.347 446.06 709.36C445.64 709.393 445.603 709.273 445.95 709L488 676.21Z" fill="#BC363D"/>
</g>
<defs>
<clipPath id="clip0_106_2">
<rect width="1024" height="1024" rx="512" fill="white"/>
</clipPath>
</defs>
</svg>
